<?xml version="1.0" encoding="UTF-8"?>
<svg width="34px" height="34px" viewBox="0 0 34 34" version="1.1" xmlns="http://www.w3.org/2000/svg" xmlns:xlink="http://www.w3.org/1999/xlink">
    <!-- Generator: Sketch 63.1 (92452) - https://sketch.com -->
    <defs>
        <linearGradient x1="-41.4632842%" y1="19.765589%" x2="79.5179027%" y2="83.5836349%" id="linearGradient-1">
            <stop stop-color="#A5E2FF" offset="0%"></stop>
            <stop stop-color="#003EDF" offset="100%"></stop>
        </linearGradient>
        <linearGradient x1="-34.2832225%" y1="-38.5669017%" x2="94.7426185%" y2="91.4411894%" id="linearGradient-2">
            <stop stop-color="#A5E2FF" offset="0%"></stop>
            <stop stop-color="#003EDF" offset="100%"></stop>
        </linearGradient>
    </defs>
    <g id="达观智能搜索logo图" stroke="none" stroke-width="1" fill="none" fill-rule="evenodd">
        <g id="达观智能搜索logo备份-3" transform="translate(0.000000, 2.000000)">
            <g id="编组-4">
                <path d="M7.86911837,1.49408906 C9.29212898,0.721699848 11.1858598,0.924491701 13.2989358,2.05129199 L13.3915793,2.10203372 L13.58684,2.19928898 C13.7533546,2.2847816 13.9217956,2.37666993 14.0919338,2.47489923 C14.3971917,2.65113997 14.7082482,2.84799736 15.0230462,3.06475787 L15.1590719,3.15963748 L15.1590719,3.15963748 L15.2565793,3.22903372 L15.4626888,3.08361993 L15.4626888,3.08361993 L15.7287682,2.90303533 C18.2868885,1.21188531 20.67101,0.84361853 22.4419228,1.86605553 C24.2128357,2.88849255 25.0859681,5.13733573 24.9005078,8.19834166 C24.8876295,8.4108763 24.86915,8.62608949 24.846383,8.84312386 C25.0571815,8.93335694 25.2640973,9.02619578 25.4658404,9.12225426 C28.3710461,10.5058661 29.9991061,12.3447293 30.0505319,14.3004974 C30.0807147,15.4477332 29.5655046,16.5270134 28.5619309,17.4729667 C28.4459303,17.0745135 28.2917827,16.6914662 28.1041912,16.3286406 C28.7571588,15.6288475 29.0964166,14.8764367 29.0773234,14.1182844 C29.0389033,12.5934104 27.549908,11.0204271 24.9930053,9.80354508 C24.8935746,9.75621543 24.7926691,9.70977308 24.6909107,9.66386565 C24.4896417,10.749466 24.1848209,11.8709767 23.784611,13.0046828 C23.3426183,12.9077943 22.8851704,12.8571429 22.4159364,12.8571429 C22.1069675,12.8571429 21.8031086,12.8791033 21.5058244,12.9215541 C21.2017014,12.3072815 20.868859,11.6930413 20.509692,11.0836119 C19.9428939,10.1218768 19.3327781,9.20972785 18.6919131,8.36124042 C17.6366975,8.2304953 16.5416382,8.15816089 15.4253807,8.1481834 C14.3091519,8.13822248 13.2152854,8.19096533 12.1622538,8.30283988 C11.536623,9.13999566 10.9428451,10.0414382 10.3933572,10.9931793 C9.84386917,11.9449204 9.36011842,12.9098121 8.947907,13.8701857 C9.37753658,14.8380751 9.87879318,15.8117627 10.4455627,16.7734812 C11.0123321,17.7351999 11.6224766,18.6473653 12.2633416,19.4958527 C13.3185859,19.6266144 14.4136165,19.6989323 15.529874,19.7089098 C15.6955597,19.7103931 15.8607518,19.7104938 16.0253902,19.7092238 C16.0443334,20.007655 16.0841658,20.3018349 16.1430807,20.5890206 C15.3478561,20.5702824 14.5601297,20.5242846 13.7851089,20.4531554 C14.5922311,21.361422 15.4270523,22.1830365 16.2734815,22.8987928 C16.4581211,22.7449266 16.6419152,22.5855899 16.8246868,22.4209988 C16.9494049,22.6470188 17.0891305,22.8653399 17.2410927,23.0741185 L17.1336579,23.1743075 L17.1336579,23.1743075 L16.7304686,23.5283936 C16.8211222,23.593536 16.9117786,23.6577315 17.002483,23.7201765 C17.9912303,24.4010147 18.9393516,24.8835935 19.8056748,25.1581224 C20.6026269,25.5154084 21.4861433,25.7142857 22.4159364,25.7142857 C23.0202605,25.7142857 23.6050354,25.6302716 24.1593007,25.4732447 C23.8588573,25.839363 23.5005222,26.138175 23.0862595,26.3630385 C21.5804356,27.1804053 19.547216,26.9055745 17.2851448,25.5995671 C16.9641097,25.4142174 16.638819,25.2084165 16.3094236,24.9817008 C16.1253631,24.8550154 15.9415043,24.7222404 15.7579609,24.5848001 C15.5813712,24.7130616 15.404276,24.8366613 15.2266097,24.9540922 C12.668415,26.645236 10.2842935,27.0135028 8.51338065,25.9910658 C6.74246781,24.9686288 5.86933543,22.7197856 6.05487007,19.6587859 C6.06773507,19.4462069 6.08621459,19.2309937 6.10898159,19.0139593 C5.89815381,18.9237093 5.69120874,18.8308536 5.48946572,18.7347951 C5.12870805,18.5629407 4.78743537,18.3840112 4.46657566,18.1987628 C2.2042413,16.8926034 0.949881707,15.2694228 0.904832663,13.5565857 C0.853390961,11.6008451 2.38696887,9.84254106 5.22305436,8.60562054 C5.42002507,8.51971617 5.62233151,8.43733302 5.82868705,8.35772832 C5.794449,8.13921684 5.76462832,7.92277833 5.74055166,7.70928891 C5.39368427,4.63468965 6.14963132,2.42742023 7.86911837,1.49408906 Z M7.64233177,19.71373 C7.63161506,19.8175783 7.62175968,19.9210254 7.61342866,20.023673 C7.3990378,22.6632434 8.01951999,24.6063501 9.31573274,25.3547189 C10.6119455,26.1030877 12.6049368,25.6688706 14.7836764,24.1634175 C14.8684063,24.1048788 14.9530665,24.0446202 15.0376898,23.9834029 C13.9840474,23.053569 12.9580945,21.9507434 11.9943042,20.7152971 C10.4425107,20.4983704 8.97444227,20.1613112 7.64233177,19.71373 Z M8.54999512,15.2253502 C8.17695609,16.3259025 7.89587463,17.4099269 7.71523227,18.4549371 C8.758295,18.8300769 9.88726377,19.1422533 11.0774266,19.3871147 C10.6137444,18.7308988 10.1665022,18.0496137 9.73965443,17.3467041 C9.31282142,16.6438446 8.9158413,15.9350694 8.54999512,15.2253502 Z M6.04541759,9.49361739 C5.9458734,9.53462239 5.8471595,9.57614631 5.74999497,9.61868327 C3.25093397,10.7122219 1.83960566,12.2140081 1.87798377,13.7388864 C1.91639325,15.2637828 3.40534724,16.8365582 5.96231536,18.0536311 C6.06174635,18.1009607 6.16270064,18.1473915 6.26441086,18.1933104 C6.52323897,16.7972271 6.95334128,15.341723 7.53732248,13.8772955 C6.87886025,12.3824704 6.37490116,10.9040965 6.04541759,9.49361739 Z M20.9463453,8.46828632 C21.4100091,9.12444574 21.8572297,9.80575518 22.2840741,10.5086577 C22.7109366,11.2115291 23.1079285,11.9203472 23.473772,12.6300593 C23.8468243,11.529488 24.1278693,10.4454564 24.3085089,9.40045746 C23.2654049,9.02533275 22.1364465,8.71315857 20.9463453,8.46828632 Z M10.5356791,8.33607107 C9.50069368,8.53845919 8.52008451,8.80240199 7.61540701,9.1244285 C7.78886262,10.0689155 8.05055792,11.050103 8.39282194,12.0476085 C8.70137792,11.4136608 9.03711956,10.7810502 9.39902969,10.1542035 C9.7609398,9.52735684 10.1409422,8.92026225 10.5356791,8.33607107 Z M22.7080343,2.50069061 C21.4117817,1.7522988 19.4187712,2.18652485 17.2399918,3.69202892 C17.1553074,3.75055617 17.0706928,3.81080334 16.9860855,3.87199227 C18.0397357,4.80183471 19.0656958,5.90467093 20.0294629,7.14011242 C21.5812702,7.35703847 23.0493344,7.69412781 24.3814266,8.14169445 C24.3920972,8.03785727 24.4019655,7.93445524 24.4102968,7.83180648 C24.6247414,5.19219312 24.004287,3.24908243 22.7080343,2.50069061 Z M13.3385416,2.07585366 C11.6932328,1.28502125 10.2520277,1.13649575 9.24420014,1.68501152 C7.90441892,2.41423148 7.30949476,4.38730284 7.61201823,7.0983475 C7.62376283,7.20376205 7.63715946,7.31001184 7.65142059,7.41672125 C9.0376832,6.99680308 10.569965,6.69406703 12.1937628,6.51687866 C13.170026,5.27895576 14.2154695,4.1787386 15.2950595,3.25654009 L15.2950595,3.25654009 L15.2565793,3.22903372 L15.197417,3.27232746 L15.197417,3.27232746 C15.0138443,3.13487026 14.8299564,3.00207843 14.6458958,2.87539306 C14.2803026,2.62379593 13.9193475,2.39756957 13.5641945,2.19695087 L13.3915793,2.10203372 Z M15.7502734,4.95660962 C14.9355864,5.63555398 14.1373501,6.42095744 13.3707437,7.29432495 C14.1683068,7.25630039 14.9805868,7.24569186 15.8027358,7.2639324 C16.6249028,7.28214189 17.4385396,7.32882562 18.2386533,7.40226259 C17.4315395,6.49399584 16.5966938,5.67236338 15.7502734,4.95660962 Z" id="形状结合" fill="url(#linearGradient-1)" fill-rule="nonzero"></path>
                <g id="编组" transform="translate(15.360583, 14.180658) rotate(-30.000000) translate(-15.360583, -14.180658) translate(10.360583, 9.180658)">
                    <g id="编组-3" transform="translate(0.924418, 0.535714)">
                        <g>
                            <g id="形状" transform="translate(0.711617, 0.714286)" fill="#3674EA" fill-rule="nonzero">
                                <path d="M6.07222811,6.095 C5.37555504,6.79357143 4.5379818,7.14285714 3.55808515,7.14285714 C2.5781885,7.14285714 1.74061525,6.79357143 1.04394218,6.095 C0.347980727,5.39571429 0,4.555 0,3.57142857 C0,2.58857143 0.347980727,1.74714286 1.04394218,1.04785714 C1.74061525,0.349285714 2.5781885,0 3.55808515,0 C4.5379818,0 5.37555504,0.349285714 6.07222811,1.04785714 C6.76818957,1.74714286 7.11617029,2.58857143 7.11617029,3.57142857 C7.11617029,4.555 6.76818957,5.39571429 6.07222811,6.095 Z M0.154420895,3.41642857 L6.96103778,3.41642857 L6.96103778,3.72714286 L0.154420895,3.72714286 L0.154420895,3.41642857 Z M5.85945462,1.26142857 C5.2275387,0.627857143 4.46041554,0.310714286 3.55808515,0.310714286 C2.65575475,0.310714286 1.8886316,0.627857143 1.25671567,1.26142857 C0.625511369,1.89571429 0.309553408,2.66571429 0.309553408,3.57142857 C0.309553408,4.47714286 0.625511369,5.24785714 1.25671567,5.88142857 C1.8886316,6.515 2.65575475,6.83214286 3.55808515,6.83214286 C4.46041554,6.83214286 5.2275387,6.515 5.85945462,5.88071429 C6.49065892,5.24785714 6.80661688,4.47714286 6.80661688,3.57142857 C6.80661688,2.66571429 6.49065892,1.89571429 5.85945462,1.26142857 Z M0.947162266,1.43642857 L1.10158316,1.165 C1.74701981,1.52714286 2.56537939,1.70785714 3.55808515,1.70785714 C4.5507909,1.70785714 5.36915049,1.52642857 6.01387551,1.16428571 L6.16829641,1.43571429 C5.47233495,1.82428571 4.60202733,2.01857143 3.55808515,2.01857143 C2.51414296,2.01857143 1.64383534,1.82428571 0.947162266,1.43642857 Z M6.01387551,5.97857143 C5.36915049,5.61642857 4.5507909,5.435 3.55808515,5.435 C2.56537939,5.435 1.74701981,5.61642857 1.10229478,5.97857143 L0.947873883,5.70714286 C1.65664444,5.31857143 2.52695207,5.12428571 3.55808515,5.12428571 C4.60202733,5.12428571 5.47233495,5.31857143 6.16900803,5.70642857 L6.01387551,5.97857143 Z M4.87315342,6.11428571 C4.51236358,6.8 4.07400749,7.14285714 3.55808515,7.14285714 C3.0421628,7.14285714 2.60380671,6.79642857 2.24301688,6.10428571 C1.88222704,5.41285714 1.70147632,4.56785714 1.70147632,3.57142857 C1.70147632,2.575 1.88222704,1.73071429 2.24301688,1.03857143 C2.60380671,0.346428571 3.0421628,0 3.55808515,0 C4.07400749,0 4.51236358,0.346428571 4.87315342,1.03857143 C5.23394325,1.73071429 5.41469398,2.575 5.41469398,3.57142857 C5.41469398,4.56785714 5.23394325,5.415 4.87315342,6.11428571 Z M4.64116626,1.28071429 C4.33161286,0.634285714 3.97082302,0.310714286 3.55808515,0.310714286 C3.14534727,0.310714286 2.78455744,0.634285714 2.47500403,1.28071429 C2.16545062,1.92857143 2.01102972,2.69142857 2.01102972,3.57142857 C2.01102972,4.45142857 2.16545062,5.215 2.47500403,5.86142857 C2.78455744,6.50928571 3.14534727,6.83214286 3.55808515,6.83214286 C3.97082302,6.83214286 4.33161286,6.50928571 4.64116626,5.86142857 C4.95071967,5.215 5.10514057,4.45142857 5.10514057,3.57142857 C5.10514057,2.69142857 4.95071967,1.92857143 4.64116626,1.28071429 Z M3.40366425,0.155 L3.71321766,0.155 L3.71321766,6.98714286 L3.40366425,6.98714286 L3.40366425,0.155 Z"></path>
                            </g>
                            <ellipse id="椭圆形" stroke="#3674EA" stroke-width="0.6" cx="4.26970218" cy="4.28571429" rx="3.96970218" ry="3.98571429"></ellipse>
                        </g>
                    </g>
                </g>
                <ellipse id="椭圆形" fill="#4C89EE" cx="24.5507875" cy="6.42857143" rx="1.06742554" ry="1.07142857"></ellipse>
                <ellipse id="椭圆形备份" fill="#4683EC" cx="4.26970218" cy="17.1428571" rx="1.06742554" ry="1.07142857"></ellipse>
                <ellipse id="椭圆形备份-2" fill="#6DAAF4" cx="8.53940435" cy="1.60714286" rx="1.06742554" ry="1.07142857"></ellipse>
                <g id="编组备份-3" transform="translate(14.008060, 10.848214)" fill="url(#linearGradient-2)" fill-rule="nonzero">
                    <path d="M8.00569158,0.535714286 C12.1323515,0.535714286 15.4776704,3.89357866 15.4776704,8.03571429 C15.4776704,9.54509312 15.0334634,10.9503328 14.2691106,12.1269067 L18.9030667,16.3460533 C19.2032,16.6548317 19.2948623,17.1134947 19.1383063,17.5172819 C18.9837837,17.9199055 18.6090637,18.1930018 18.1819355,18.2142857 L18.1389435,18.1774289 C17.8674075,18.1685265 17.6093574,18.0558151 17.4170012,17.8620981 L13.2221487,13.4054585 C11.8756128,14.7235925 10.0351384,15.5357143 8.00569158,15.5357143 C3.87903163,15.5357143 0.533712772,12.1778499 0.533712772,8.03571429 C0.533712772,3.89357866 3.87903163,0.535714286 8.00569158,0.535714286 Z M8.00569158,2.14285714 C4.76331591,2.14285714 2.13485109,4.78117915 2.13485109,8.03571429 C2.13485109,11.2902494 4.76331591,13.9285714 8.00569158,13.9285714 C11.2480673,13.9285714 13.8765321,11.2902494 13.8765321,8.03571429 C13.8765321,4.78117915 11.2480673,2.14285714 8.00569158,2.14285714 Z" id="形状结合"></path>
                </g>
            </g>
        </g>
    </g>
</svg>